<svg xmlns="http://www.w3.org/2000/svg" xmlns:xlink="http://www.w3.org/1999/xlink" contentStyleType="text/css" data-diagram-type="DESCRIPTION" height="1186px" preserveAspectRatio="none" style="width:2435px;height:1186px;background:#FFFFFF;" version="1.1" viewBox="0 0 2435 1186" width="2435px" zoomAndPan="magnify"><?plantuml 1.2026.3beta6?><defs/><g><g class="title" data-source-line="14"><text fill="#000000" font-family="sans-serif" font-size="14" font-weight="700" lengthAdjust="spacing" textLength="203.1094" x="1112.8207" y="22.9951">IAE - Component Diagram</text></g><!--cluster CLI--><g class="cluster" data-qualified-name="CLI" data-source-line="18" id="ent0003"><rect fill="#FFFFE0" height="103.29" rx="2.5" ry="2.5" style="stroke:#000000;stroke-width:1;" width="347" x="485" y="972.1369"/><text fill="#000000" font-family="sans-serif" font-size="14" font-weight="700" lengthAdjust="spacing" textLength="163.3516" x="576.8242" y="987.132">Command Line Tools</text></g><!--cluster IAE Application--><g class="cluster" data-qualified-name="IAE Application" data-source-line="24" id="ent0006"><path d="M8.5,43.2969 L129.2793,43.2969 A3.75,3.75 0 0 1 131.7793,45.7969 L138.7793,65.5938 L1170.5,65.5938 A2.5,2.5 0 0 1 1173,68.0938 L1173,937.6369 A2.5,2.5 0 0 1 1170.5,940.1369 L8.5,940.1369 A2.5,2.5 0 0 1 6,937.6369 L6,45.7969 A2.5,2.5 0 0 1 8.5,43.2969" fill="#FFFFE0" style="stroke:#000000;stroke-width:1.5;"/><line style="stroke:#000000;stroke-width:1.5;" x1="6" x2="138.7793" y1="65.5938" y2="65.5938"/><text fill="#000000" font-family="sans-serif" font-size="14" font-weight="700" lengthAdjust="spacing" textLength="119.7793" x="10" y="58.292">IAE Application</text></g><!--cluster GUI Layer--><g class="cluster" data-qualified-name="IAE Application.GUI Layer" data-source-line="27" id="ent0007"><path d="M528.5,86.2969 L606.3359,86.2969 A3.75,3.75 0 0 1 608.8359,88.7969 L615.8359,108.5938 L798.5,108.5938 A2.5,2.5 0 0 1 801,111.0938 L801,267.3969 A2.5,2.5 0 0 1 798.5,269.8969 L528.5,269.8969 A2.5,2.5 0 0 1 526,267.3969 L526,88.7969 A2.5,2.5 0 0 1 528.5,86.2969" fill="#FFFFE0" style="stroke:#000000;stroke-width:1.5;"/><line style="stroke:#000000;stroke-width:1.5;" x1="526" x2="615.8359" y1="108.5938" y2="108.5938"/><text fill="#000000" font-family="sans-serif" font-size="14" font-weight="700" lengthAdjust="spacing" textLength="76.8359" x="530" y="101.292">GUI Layer</text></g><!--cluster Business Logic Layer--><g class="cluster" data-qualified-name="IAE Application.Business Logic Layer" data-source-line="34" id="ent0011"><path d="M375.5,293.8969 L541.6973,293.8969 A3.75,3.75 0 0 1 544.1973,296.3969 L551.1973,316.1938 L1146.5,316.1938 A2.5,2.5 0 0 1 1149,318.6938 L1149,378.6869 A2.5,2.5 0 0 1 1146.5,381.1869 L375.5,381.1869 A2.5,2.5 0 0 1 373,378.6869 L373,296.3969 A2.5,2.5 0 0 1 375.5,293.8969" fill="#FFFFE0" style="stroke:#000000;stroke-width:1.5;"/><line style="stroke:#000000;stroke-width:1.5;" x1="373" x2="551.1973" y1="316.1938" y2="316.1938"/><text fill="#000000" font-family="sans-serif" font-size="14" font-weight="700" lengthAdjust="spacing" textLength="165.1973" x="377" y="308.892">Business Logic Layer</text></g><!--cluster Evaluation Engine--><g class="cluster" data-qualified-name="IAE Application.Evaluation Engine" data-source-line="42" id="ent0016"><path d="M32.5,409.2969 L175.6123,409.2969 A3.75,3.75 0 0 1 178.1123,411.7969 L185.1123,431.5938 L677.5,431.5938 A2.5,2.5 0 0 1 680,434.0938 L680,913.6369 A2.5,2.5 0 0 1 677.5,916.1369 L32.5,916.1369 A2.5,2.5 0 0 1 30,913.6369 L30,411.7969 A2.5,2.5 0 0 1 32.5,409.2969" fill="#FFFFE0" style="stroke:#000000;stroke-width:1.5;"/><line style="stroke:#000000;stroke-width:1.5;" x1="30" x2="185.1123" y1="431.5938" y2="431.5938"/><text fill="#000000" font-family="sans-serif" font-size="14" font-weight="700" lengthAdjust="spacing" textLength="142.1123" x="34" y="424.292">Evaluation Engine</text></g><!--cluster Steps--><g class="cluster" data-qualified-name="IAE Application.Evaluation Engine.Steps" data-source-line="44" id="ent0018"><rect fill="#FFFFE0" height="103.3" rx="2.5" ry="2.5" style="stroke:#000000;stroke-width:1;" width="586" x="62" y="516.6869"/><text fill="#000000" font-family="sans-serif" font-size="14" font-weight="700" lengthAdjust="spacing" textLength="132.9248" x="288.5376" y="531.682">Evaluation Steps</text></g><!--cluster Strategies--><g class="cluster" data-qualified-name="IAE Application.Evaluation Engine.Strategies" data-source-line="50" id="ent0023"><rect fill="#FFFFE0" height="209.15" rx="2.5" ry="2.5" style="stroke:#000000;stroke-width:1;" width="360" x="62" y="674.9869"/><text fill="#000000" font-family="sans-serif" font-size="14" font-weight="700" lengthAdjust="spacing" textLength="180.4072" x="151.7964" y="689.982">Comparison Strategies</text></g><!--cluster Data Access Layer--><g class="cluster" data-qualified-name="IAE Application.Data Access Layer" data-source-line="58" id="ent0027"><path d="M706.5,409.2969 L851.9434,409.2969 A3.75,3.75 0 0 1 854.4434,411.7969 L861.4434,431.5938 L1146.5,431.5938 A2.5,2.5 0 0 1 1149,434.0938 L1149,609.4869 A2.5,2.5 0 0 1 1146.5,611.9869 L706.5,611.9869 A2.5,2.5 0 0 1 704,609.4869 L704,411.7969 A2.5,2.5 0 0 1 706.5,409.2969" fill="#FFFFE0" style="stroke:#000000;stroke-width:1.5;"/><line style="stroke:#000000;stroke-width:1.5;" x1="704" x2="861.4434" y1="431.5938" y2="431.5938"/><text fill="#000000" font-family="sans-serif" font-size="14" font-weight="700" lengthAdjust="spacing" textLength="144.4434" x="708" y="424.292">Data Access Layer</text></g><!--cluster Infrastructure Layer--><g class="cluster" data-qualified-name="IAE Application.Infrastructure Layer" data-source-line="66" id="ent0032"><path d="M706.5,682.9869 L867.1396,682.9869 A3.75,3.75 0 0 1 869.6396,685.4869 L876.6396,705.2838 L1074.5,705.2838 A2.5,2.5 0 0 1 1077,707.7838 L1077,873.6369 A2.5,2.5 0 0 1 1074.5,876.1369 L706.5,876.1369 A2.5,2.5 0 0 1 704,873.6369 L704,685.4869 A2.5,2.5 0 0 1 706.5,682.9869" fill="#FFFFE0" style="stroke:#000000;stroke-width:1.5;"/><line style="stroke:#000000;stroke-width:1.5;" x1="704" x2="876.6396" y1="705.2838" y2="705.2838"/><text fill="#000000" font-family="sans-serif" font-size="14" font-weight="700" lengthAdjust="spacing" textLength="159.6396" x="708" y="697.982">Infrastructure Layer</text></g><!--cluster DB--><g class="cluster" data-qualified-name="DB" data-source-line="75" id="ent0037"><path d="M1205,669.9869 C1205,659.9869 1329.5,659.9869 1329.5,659.9869 C1329.5,659.9869 1454,659.9869 1454,669.9869 L1454,768.2869 C1454,778.2869 1329.5,778.2869 1329.5,778.2869 C1329.5,778.2869 1205,778.2869 1205,768.2869 L1205,669.9869" fill="#FFFFE0" style="stroke:#000000;stroke-width:1;"/><path d="M1205,669.9869 C1205,679.9869 1329.5,679.9869 1329.5,679.9869 C1329.5,679.9869 1454,679.9869 1454,669.9869" fill="none" style="stroke:#000000;stroke-width:1;"/><text fill="#000000" font-family="sans-serif" font-size="14" font-weight="700" lengthAdjust="spacing" textLength="131.2705" x="1263.8647" y="694.982">SQLite Database</text></g><!--cluster ConfigFiles--><g class="cluster" data-qualified-name="ConfigFiles" data-source-line="81" id="ent0040"><path d="M1496.5,516.6869 L1647.5283,516.6869 A3.75,3.75 0 0 1 1650.0283,519.1869 L1657.0283,538.9838 L1938.5,538.9838 A2.5,2.5 0 0 1 1941,541.4838 L1941,775.7869 A2.5,2.5 0 0 1 1938.5,778.2869 L1496.5,778.2869 A2.5,2.5 0 0 1 1494,775.7869 L1494,519.1869 A2.5,2.5 0 0 1 1496.5,516.6869" fill="#FFFFE0" style="stroke:#000000;stroke-width:1.5;"/><line style="stroke:#000000;stroke-width:1.5;" x1="1494" x2="1657.0283" y1="538.9838" y2="538.9838"/><text fill="#000000" font-family="sans-serif" font-size="14" font-weight="700" lengthAdjust="spacing" textLength="150.0283" x="1498" y="531.682">Configuration Files</text></g><!--cluster Submissions--><g class="cluster" data-qualified-name="Submissions" data-source-line="88" id="ent0044"><path d="M1324.5,972.1369 L1492.1328,972.1369 A3.75,3.75 0 0 1 1494.6328,974.6369 L1501.6328,994.4338 L1636.5,994.4338 A2.5,2.5 0 0 1 1639,996.9338 L1639,1169.2269 A2.5,2.5 0 0 1 1636.5,1171.7269 L1324.5,1171.7269 A2.5,2.5 0 0 1 1322,1169.2269 L1322,974.6369 A2.5,2.5 0 0 1 1324.5,972.1369" fill="#FFFFE0" style="stroke:#000000;stroke-width:1.5;"/><line style="stroke:#000000;stroke-width:1.5;" x1="1322" x2="1501.6328" y1="994.4338" y2="994.4338"/><text fill="#000000" font-family="sans-serif" font-size="14" font-weight="700" lengthAdjust="spacing" textLength="166.6328" x="1326" y="987.132">Student Submissions</text></g><!--entity Compilers--><g class="entity" data-qualified-name="CLI.Compilers" data-source-line="19" id="ent0004"><rect fill="#ADD8E6" height="36.2969" rx="2.5" ry="2.5" style="stroke:#000000;stroke-width:0.5;" width="139.7178" x="509.14" y="1015.1369"/><text fill="#000000" font-family="sans-serif" font-size="14" lengthAdjust="spacing" textLength="119.7178" x="519.14" y="1038.132">gcc/javac/python</text></g><!--entity Exec--><g class="entity" data-qualified-name="CLI.Exec" data-source-line="20" id="ent0005"><rect fill="#ADD8E6" height="36.2969" rx="2.5" ry="2.5" style="stroke:#000000;stroke-width:0.5;" width="105.0664" x="683.47" y="1015.1369"/><text fill="#000000" font-family="sans-serif" font-size="14" lengthAdjust="spacing" textLength="85.0664" x="693.47" y="1038.132">Executables</text></g><!--entity Views--><g class="entity" data-qualified-name="IAE Application.GUI Layer.Views" data-source-line="28" id="ent0008"><rect fill="#ADD8E6" height="36.2969" rx="2.5" ry="2.5" style="stroke:#000000;stroke-width:0.5;" width="112.4902" x="541.75" y="217.5969"/><text fill="#000000" font-family="sans-serif" font-size="14" lengthAdjust="spacing" textLength="92.4902" x="551.75" y="240.592">JavaFX Views</text></g><!--entity Controllers--><g class="entity" data-qualified-name="IAE Application.GUI Layer.Controllers" data-source-line="29" id="ent0009"><rect fill="#ADD8E6" height="36.2969" rx="2.5" ry="2.5" style="stroke:#000000;stroke-width:0.5;" width="96.4668" x="688.77" y="217.5969"/><text fill="#000000" font-family="sans-serif" font-size="14" lengthAdjust="spacing" textLength="76.4668" x="698.77" y="240.592">Controllers</text></g><!--entity MainApp--><g class="entity" data-qualified-name="IAE Application.GUI Layer.MainApp" data-source-line="30" id="ent0010"><rect fill="#ADD8E6" height="36.2969" rx="2.5" ry="2.5" style="stroke:#000000;stroke-width:0.5;" width="136.0947" x="594.95" y="121.2969"/><text fill="#000000" font-family="sans-serif" font-size="14" lengthAdjust="spacing" textLength="116.0947" x="604.95" y="144.292">Main Application</text></g><!--entity PM--><g class="entity" data-qualified-name="IAE Application.Business Logic Layer.PM" data-source-line="35" id="ent0012"><rect fill="#ADD8E6" height="36.2969" rx="2.5" ry="2.5" style="stroke:#000000;stroke-width:0.5;" width="134.2695" x="573.87" y="328.8969"/><text fill="#000000" font-family="sans-serif" font-size="14" lengthAdjust="spacing" textLength="114.2695" x="583.87" y="351.892">Project Manager</text></g><!--entity CM--><g class="entity" data-qualified-name="IAE Application.Business Logic Layer.CM" data-source-line="36" id="ent0013"><rect fill="#ADD8E6" height="36.2969" rx="2.5" ry="2.5" style="stroke:#000000;stroke-width:0.5;" width="180.7607" x="743.62" y="328.8969"/><text fill="#000000" font-family="sans-serif" font-size="14" lengthAdjust="spacing" textLength="160.7607" x="753.62" y="351.892">Configuration Manager</text></g><!--entity ES--><g class="entity" data-qualified-name="IAE Application.Business Logic Layer.ES" data-source-line="37" id="ent0014"><rect fill="#ADD8E6" height="36.2969" rx="2.5" ry="2.5" style="stroke:#000000;stroke-width:0.5;" width="150.0605" x="388.97" y="328.8969"/><text fill="#000000" font-family="sans-serif" font-size="14" lengthAdjust="spacing" textLength="130.0605" x="398.97" y="351.892">Evaluation Service</text></g><!--entity IES--><g class="entity" data-qualified-name="IAE Application.Business Logic Layer.IES" data-source-line="38" id="ent0015"><rect fill="#ADD8E6" height="36.2969" rx="2.5" ry="2.5" style="stroke:#000000;stroke-width:0.5;" width="173.2002" x="959.4" y="328.8969"/><text fill="#000000" font-family="sans-serif" font-size="14" lengthAdjust="spacing" textLength="153.2002" x="969.4" y="351.892">Import/Export Service</text></g><!--entity EF--><g class="entity" data-qualified-name="IAE Application.Evaluation Engine.EF" data-source-line="43" id="ent0017"><rect fill="#ADD8E6" height="36.2969" rx="2.5" ry="2.5" style="stroke:#000000;stroke-width:0.5;" width="148.7275" x="435.64" y="444.2969"/><text fill="#000000" font-family="sans-serif" font-size="14" lengthAdjust="spacing" textLength="128.7275" x="445.64" y="467.292">Evaluation Facade</text></g><!--entity US--><g class="entity" data-qualified-name="IAE Application.Evaluation Engine.Steps.US" data-source-line="45" id="ent0019"><rect fill="#ADD8E6" height="36.2969" rx="2.5" ry="2.5" style="stroke:#000000;stroke-width:0.5;" width="95.5713" x="509.21" y="559.6869"/><text fill="#000000" font-family="sans-serif" font-size="14" lengthAdjust="spacing" textLength="75.5713" x="519.21" y="582.682">Unzip Step</text></g><!--entity CS--><g class="entity" data-qualified-name="IAE Application.Evaluation Engine.Steps.CS" data-source-line="46" id="ent0020"><rect fill="#ADD8E6" height="36.2969" rx="2.5" ry="2.5" style="stroke:#000000;stroke-width:0.5;" width="113.584" x="241.21" y="559.6869"/><text fill="#000000" font-family="sans-serif" font-size="14" lengthAdjust="spacing" textLength="93.584" x="251.21" y="582.682">Compile Step</text></g><!--entity RS--><g class="entity" data-qualified-name="IAE Application.Evaluation Engine.Steps.RS" data-source-line="47" id="ent0021"><rect fill="#ADD8E6" height="36.2969" rx="2.5" ry="2.5" style="stroke:#000000;stroke-width:0.5;" width="83.7998" x="390.1" y="559.6869"/><text fill="#000000" font-family="sans-serif" font-size="14" lengthAdjust="spacing" textLength="63.7998" x="400.1" y="582.682">Run Step</text></g><!--entity CPS--><g class="entity" data-qualified-name="IAE Application.Evaluation Engine.Steps.CPS" data-source-line="48" id="ent0022"><rect fill="#ADD8E6" height="36.2969" rx="2.5" ry="2.5" style="stroke:#000000;stroke-width:0.5;" width="120.1396" x="85.93" y="559.6869"/><text fill="#000000" font-family="sans-serif" font-size="14" lengthAdjust="spacing" textLength="100.1396" x="95.93" y="582.682">Compare Step</text></g><!--entity EM--><g class="entity" data-qualified-name="IAE Application.Evaluation Engine.Strategies.EM" data-source-line="51" id="ent0024"><rect fill="#ADD8E6" height="36.2969" rx="2.5" ry="2.5" style="stroke:#000000;stroke-width:0.5;" width="106.0645" x="85.97" y="717.9869"/><text fill="#000000" font-family="sans-serif" font-size="14" lengthAdjust="spacing" textLength="86.0645" x="95.97" y="740.982">Exact Match</text></g><!--entity IW--><g class="entity" data-qualified-name="IAE Application.Evaluation Engine.Strategies.IW" data-source-line="52" id="ent0025"><rect fill="#ADD8E6" height="36.2969" rx="2.5" ry="2.5" style="stroke:#000000;stroke-width:0.5;" width="151.0518" x="227.47" y="717.9869"/><text fill="#000000" font-family="sans-serif" font-size="14" lengthAdjust="spacing" textLength="131.0518" x="237.47" y="740.982">Ignore Whitespace</text></g><!--entity TL--><g class="entity" data-qualified-name="IAE Application.Evaluation Engine.Strategies.TL" data-source-line="53" id="ent0026"><rect fill="#ADD8E6" height="36.2969" rx="2.5" ry="2.5" style="stroke:#000000;stroke-width:0.5;" width="92.7549" x="92.62" y="823.8369"/><text fill="#000000" font-family="sans-serif" font-size="14" lengthAdjust="spacing" textLength="72.7549" x="102.62" y="846.832">Trim Lines</text></g><!--entity PDAO--><g class="entity" data-qualified-name="IAE Application.Data Access Layer.PDAO" data-source-line="59" id="ent0028"><rect fill="#ADD8E6" height="36.2969" rx="2.5" ry="2.5" style="stroke:#000000;stroke-width:0.5;" width="104.2803" x="719.86" y="444.2969"/><text fill="#000000" font-family="sans-serif" font-size="14" lengthAdjust="spacing" textLength="84.2803" x="729.86" y="467.292">Project DAO</text></g><!--entity RDAO--><g class="entity" data-qualified-name="IAE Application.Data Access Layer.RDAO" data-source-line="60" id="ent0029"><rect fill="#ADD8E6" height="36.2969" rx="2.5" ry="2.5" style="stroke:#000000;stroke-width:0.5;" width="99.7139" x="859.14" y="444.2969"/><text fill="#000000" font-family="sans-serif" font-size="14" lengthAdjust="spacing" textLength="79.7139" x="869.14" y="467.292">Result DAO</text></g><!--entity CIO--><g class="entity" data-qualified-name="IAE Application.Data Access Layer.CIO" data-source-line="61" id="ent0030"><rect fill="#ADD8E6" height="36.2969" rx="2.5" ry="2.5" style="stroke:#000000;stroke-width:0.5;" width="139.2598" x="993.37" y="444.2969"/><text fill="#000000" font-family="sans-serif" font-size="14" lengthAdjust="spacing" textLength="119.2598" x="1003.37" y="467.292">Configuration I/O</text></g><!--entity DBM--><g class="entity" data-qualified-name="IAE Application.Data Access Layer.DBM" data-source-line="62" id="ent0031"><rect fill="#ADD8E6" height="36.2969" rx="2.5" ry="2.5" style="stroke:#000000;stroke-width:0.5;" width="152.6172" x="832.69" y="559.6869"/><text fill="#000000" font-family="sans-serif" font-size="14" lengthAdjust="spacing" textLength="132.6172" x="842.69" y="582.682">Database Manager</text></g><!--entity CE--><g class="entity" data-qualified-name="IAE Application.Infrastructure Layer.CE" data-source-line="67" id="ent0033"><rect fill="#ADD8E6" height="36.2969" rx="2.5" ry="2.5" style="stroke:#000000;stroke-width:0.5;" width="158.5303" x="719.73" y="717.9869"/><text fill="#000000" font-family="sans-serif" font-size="14" lengthAdjust="spacing" textLength="138.5303" x="729.73" y="740.982">Command Executor</text></g><!--entity ProcM--><g class="entity" data-qualified-name="IAE Application.Infrastructure Layer.ProcM" data-source-line="68" id="ent0034"><rect fill="#ADD8E6" height="36.2969" rx="2.5" ry="2.5" style="stroke:#000000;stroke-width:0.5;" width="139.4785" x="720.26" y="823.8369"/><text fill="#000000" font-family="sans-serif" font-size="14" lengthAdjust="spacing" textLength="119.4785" x="730.26" y="846.832">Process Manager</text></g><!--entity ZH--><g class="entity" data-qualified-name="IAE Application.Infrastructure Layer.ZH" data-source-line="69" id="ent0035"><rect fill="#ADD8E6" height="36.2969" rx="2.5" ry="2.5" style="stroke:#000000;stroke-width:0.5;" width="101.7373" x="920.13" y="717.9869"/><text fill="#000000" font-family="sans-serif" font-size="14" lengthAdjust="spacing" textLength="81.7373" x="930.13" y="740.982">ZIP Handler</text></g><!--entity FSM--><g class="entity" data-qualified-name="IAE Application.Infrastructure Layer.FSM" data-source-line="70" id="ent0036"><rect fill="#ADD8E6" height="36.2969" rx="2.5" ry="2.5" style="stroke:#000000;stroke-width:0.5;" width="166.918" x="894.54" y="823.8369"/><text fill="#000000" font-family="sans-serif" font-size="14" lengthAdjust="spacing" textLength="146.918" x="904.54" y="846.832">File System Manager</text></g><!--entity ProjDB--><g class="entity" data-qualified-name="DB.ProjDB" data-source-line="76" id="ent0038"><rect fill="#ADD8E6" height="36.2969" rx="2.5" ry="2.5" style="stroke:#000000;stroke-width:0.5;" width="75.7471" x="1229.13" y="717.9869"/><text fill="#000000" font-family="sans-serif" font-size="14" lengthAdjust="spacing" textLength="55.7471" x="1239.13" y="740.982">Projects</text></g><!--entity ResDB--><g class="entity" data-qualified-name="DB.ResDB" data-source-line="77" id="ent0039"><rect fill="#ADD8E6" height="36.2969" rx="2.5" ry="2.5" style="stroke:#000000;stroke-width:0.5;" width="71.1807" x="1339.41" y="717.9869"/><text fill="#000000" font-family="sans-serif" font-size="14" lengthAdjust="spacing" textLength="51.1807" x="1349.41" y="740.982">Results</text></g><!--entity CConfig--><g class="entity" data-qualified-name="ConfigFiles.CConfig" data-source-line="82" id="ent0041"><path d="M1518.41,562.1869 L1518.41,593.4838 A2.5,2.5 0 0 0 1520.91,595.9838 L1677.0858,595.9838 A2.5,2.5 0 0 0 1679.5858,593.4838 L1679.5858,569.6869 L1669.5858,559.6869 L1520.91,559.6869 A2.5,2.5 0 0 0 1518.41,562.1869" fill="#F1F1F1" style="stroke:#181818;stroke-width:0.5;"/><path d="M1669.5858,559.6869 L1669.5858,567.1869 A2.5,2.5 0 0 0 1672.0858,569.6869 L1679.5858,569.6869" fill="#F1F1F1" style="stroke:#181818;stroke-width:0.5;"/><text fill="#000000" font-family="sans-serif" font-size="14" lengthAdjust="spacing" textLength="141.1758" x="1528.41" y="582.682">c-programming.json</text></g><!--entity JConfig--><g class="entity" data-qualified-name="ConfigFiles.JConfig" data-source-line="83" id="ent0042"><path d="M1714.59,562.1869 L1714.59,593.4838 A2.5,2.5 0 0 0 1717.09,595.9838 L1894.9015,595.9838 A2.5,2.5 0 0 0 1897.4015,593.4838 L1897.4015,569.6869 L1887.4015,559.6869 L1717.09,559.6869 A2.5,2.5 0 0 0 1714.59,562.1869" fill="#F1F1F1" style="stroke:#181818;stroke-width:0.5;"/><path d="M1887.4015,559.6869 L1887.4015,567.1869 A2.5,2.5 0 0 0 1889.9015,569.6869 L1897.4015,569.6869" fill="#F1F1F1" style="stroke:#181818;stroke-width:0.5;"/><text fill="#000000" font-family="sans-serif" font-size="14" lengthAdjust="spacing" textLength="162.8115" x="1724.59" y="582.682">java-programming.json</text></g><!--entity PConfig--><g class="entity" data-qualified-name="ConfigFiles.PConfig" data-source-line="84" id="ent0043"><path d="M1517.77,720.4869 L1517.77,751.7838 A2.5,2.5 0 0 0 1520.27,754.2838 L1717.7212,754.2838 A2.5,2.5 0 0 0 1720.2212,751.7838 L1720.2212,727.9869 L1710.2212,717.9869 L1520.27,717.9869 A2.5,2.5 0 0 0 1517.77,720.4869" fill="#F1F1F1" style="stroke:#181818;stroke-width:0.5;"/><path d="M1710.2212,717.9869 L1710.2212,725.4869 A2.5,2.5 0 0 0 1712.7212,727.9869 L1720.2212,727.9869" fill="#F1F1F1" style="stroke:#181818;stroke-width:0.5;"/><text fill="#000000" font-family="sans-serif" font-size="14" lengthAdjust="spacing" textLength="182.4512" x="1527.77" y="740.982">python-programming.json</text></g><!--entity S1--><g class="entity" data-qualified-name="Submissions.S1" data-source-line="89" id="ent0045"><path d="M1346.5,1017.6369 L1346.5,1048.9338 A2.5,2.5 0 0 0 1349,1051.4338 L1451.001,1051.4338 A2.5,2.5 0 0 0 1453.501,1048.9338 L1453.501,1025.1369 L1443.501,1015.1369 L1349,1015.1369 A2.5,2.5 0 0 0 1346.5,1017.6369" fill="#F1F1F1" style="stroke:#181818;stroke-width:0.5;"/><path d="M1443.501,1015.1369 L1443.501,1022.6369 A2.5,2.5 0 0 0 1446.001,1025.1369 L1453.501,1025.1369" fill="#F1F1F1" style="stroke:#181818;stroke-width:0.5;"/><text fill="#000000" font-family="sans-serif" font-size="14" lengthAdjust="spacing" textLength="87.001" x="1356.5" y="1038.132">student1.zip</text></g><!--entity S2--><g class="entity" data-qualified-name="Submissions.S2" data-source-line="90" id="ent0046"><path d="M1488.5,1017.6369 L1488.5,1048.9338 A2.5,2.5 0 0 0 1491,1051.4338 L1593.001,1051.4338 A2.5,2.5 0 0 0 1595.501,1048.9338 L1595.501,1025.1369 L1585.501,1015.1369 L1491,1015.1369 A2.5,2.5 0 0 0 1488.5,1017.6369" fill="#F1F1F1" style="stroke:#181818;stroke-width:0.5;"/><path d="M1585.501,1015.1369 L1585.501,1022.6369 A2.5,2.5 0 0 0 1588.001,1025.1369 L1595.501,1025.1369" fill="#F1F1F1" style="stroke:#181818;stroke-width:0.5;"/><text fill="#000000" font-family="sans-serif" font-size="14" lengthAdjust="spacing" textLength="87.001" x="1498.5" y="1038.132">student2.zip</text></g><!--entity SN--><g class="entity" data-qualified-name="Submissions.SN" data-source-line="91" id="ent0047"><path d="M1345.72,1113.9269 L1345.72,1145.2238 A2.5,2.5 0 0 0 1348.22,1147.7238 L1451.7864,1147.7238 A2.5,2.5 0 0 0 1454.2864,1145.2238 L1454.2864,1121.4269 L1444.2864,1111.4269 L1348.22,1111.4269 A2.5,2.5 0 0 0 1345.72,1113.9269" fill="#F1F1F1" style="stroke:#181818;stroke-width:0.5;"/><path d="M1444.2864,1111.4269 L1444.2864,1118.9269 A2.5,2.5 0 0 0 1446.7864,1121.4269 L1454.2864,1121.4269" fill="#F1F1F1" style="stroke:#181818;stroke-width:0.5;"/><text fill="#000000" font-family="sans-serif" font-size="14" lengthAdjust="spacing" textLength="88.5664" x="1355.72" y="1134.422">studentN.zip</text></g><!--entity FS--><g class="entity" data-qualified-name="FS" data-source-line="17" id="ent0002"><rect fill="#ADD8E6" height="36.2969" rx="2.5" ry="2.5" style="stroke:#000000;stroke-width:0.5;" width="101.1016" x="685.45" y="1111.4269"/><text fill="#000000" font-family="sans-serif" font-size="14" lengthAdjust="spacing" textLength="81.1016" x="695.45" y="1134.422">File System</text></g><g class="entity" data-qualified-name="GMN80" data-source-line="142" id="ent0081"><path d="M1189.13,434.7469 L1189.13,490.1453 L1340.8727,490.1453 L1340.8727,444.7469 L1330.8727,434.7469 L1189.13,434.7469" fill="#FEFFDD" style="stroke:#181818;stroke-width:0.5;"/><path d="M1330.8727,434.7469 L1330.8727,444.7469 L1340.8727,444.7469 L1330.8727,434.7469" fill="#FEFFDD" style="stroke:#181818;stroke-width:1;"/><text fill="#000000" font-family="sans-serif" font-size="13" lengthAdjust="spacing" textLength="102.9019" x="1195.13" y="451.8138">Facade Pattern:</text><text fill="#000000" font-family="sans-serif" font-size="13" lengthAdjust="spacing" textLength="126.4326" x="1195.13" y="466.9466">Orchestrates entire</text><text fill="#000000" font-family="sans-serif" font-size="13" lengthAdjust="spacing" textLength="130.7427" x="1195.13" y="482.0794">evaluation workflow</text></g><g class="entity" data-qualified-name="GMN83" data-source-line="148" id="ent0084"><path d="M1188.78,319.3469 L1188.78,374.7453 L1387.2287,374.7453 L1387.2287,329.3469 L1377.2287,319.3469 L1188.78,319.3469" fill="#FEFFDD" style="stroke:#181818;stroke-width:0.5;"/><path d="M1377.2287,319.3469 L1377.2287,329.3469 L1387.2287,329.3469 L1377.2287,319.3469" fill="#FEFFDD" style="stroke:#181818;stroke-width:1;"/><text fill="#000000" font-family="sans-serif" font-size="13" lengthAdjust="spacing" textLength="117.3491" x="1194.78" y="336.4138">Singleton Pattern:</text><text fill="#000000" font-family="sans-serif" font-size="13" lengthAdjust="spacing" textLength="121.1768" x="1194.78" y="351.5466">Single instance for</text><text fill="#000000" font-family="sans-serif" font-size="13" lengthAdjust="spacing" textLength="177.4487" x="1194.78" y="366.6794">configuration management</text></g><g class="entity" data-qualified-name="GMN86" data-source-line="154" id="ent0087"><path d="M2229.24,550.1369 L2229.24,605.5353 L2420.7507,605.5353 L2420.7507,560.1369 L2410.7507,550.1369 L2229.24,550.1369" fill="#FEFFDD" style="stroke:#181818;stroke-width:0.5;"/><path d="M2410.7507,550.1369 L2410.7507,560.1369 L2420.7507,560.1369 L2410.7507,550.1369" fill="#FEFFDD" style="stroke:#181818;stroke-width:1;"/><text fill="#000000" font-family="sans-serif" font-size="13" lengthAdjust="spacing" textLength="170.5107" x="2235.24" y="567.2038">Template Method Pattern:</text><text fill="#000000" font-family="sans-serif" font-size="13" lengthAdjust="spacing" textLength="142.9238" x="2235.24" y="582.3366">Common workflow for</text><text fill="#000000" font-family="sans-serif" font-size="13" lengthAdjust="spacing" textLength="126.7246" x="2235.24" y="597.4694">all evaluation steps</text></g><g class="entity" data-qualified-name="GMN89" data-source-line="160" id="ent0090"><path d="M1964.75,708.4369 L1964.75,763.8353 L2123.2402,763.8353 L2123.2402,718.4369 L2113.2402,708.4369 L1964.75,708.4369" fill="#FEFFDD" style="stroke:#181818;stroke-width:0.5;"/><path d="M2113.2402,708.4369 L2113.2402,718.4369 L2123.2402,718.4369 L2113.2402,708.4369" fill="#FEFFDD" style="stroke:#181818;stroke-width:1;"/><text fill="#000000" font-family="sans-serif" font-size="13" lengthAdjust="spacing" textLength="111.7949" x="1970.75" y="725.5038">Strategy Pattern:</text><text fill="#000000" font-family="sans-serif" font-size="13" lengthAdjust="spacing" textLength="137.4902" x="1970.75" y="740.6366">Different comparison</text><text fill="#000000" font-family="sans-serif" font-size="13" lengthAdjust="spacing" textLength="69.5132" x="1970.75" y="755.7694">algorithms</text></g><!--link MainApp to Views--><g class="link" data-entity-1="ent0010" data-entity-2="ent0008" data-link-type="dependency" data-source-line="95" id="lnk48"><path d="M651.08,157.7469 C639.42,174.6569 625.1757,195.3271 613.4757,212.2971" fill="none" id="MainApp-to-Views" style="stroke:#181818;stroke-width:1;"/><polygon fill="#181818" points="610.07,217.2369,618.4717,212.0977,612.9081,213.1204,611.8854,207.5568,610.07,217.2369" style="stroke:#181818;stroke-width:1;"/></g><!--link MainApp to Controllers--><g class="link" data-entity-1="ent0010" data-entity-2="ent0009" data-link-type="dependency" data-source-line="96" id="lnk49"><path d="M676.57,157.7469 C689.84,174.6569 706.2354,195.5471 719.5554,212.5171" fill="none" id="MainApp-to-Controllers" style="stroke:#181818;stroke-width:1;"/><polygon fill="#181818" points="723.26,217.2369,720.8496,207.6875,720.1728,213.3038,714.5566,212.627,723.26,217.2369" style="stroke:#181818;stroke-width:1;"/></g><!--link Controllers to PM--><g class="link" data-entity-1="ent0009" data-entity-2="ent0012" data-link-type="dependency" data-source-line="97" id="lnk50"><path d="M721.58,254.3069 C703.66,274.7069 678.2382,303.6377 660.3482,324.0177" fill="none" id="Controllers-to-PM" style="stroke:#181818;stroke-width:1;"/><polygon fill="#181818" points="656.39,328.5269,665.3334,324.402,659.6885,324.7693,659.3212,319.1243,656.39,328.5269" style="stroke:#181818;stroke-width:1;"/></g><!--link Controllers to CM--><g class="link" data-entity-1="ent0009" data-entity-2="ent0013" data-link-type="dependency" data-source-line="98" id="lnk51"><path d="M752.58,254.3069 C770.69,274.7069 796.3882,303.6585 814.4682,324.0385" fill="none" id="Controllers-to-CM" style="stroke:#181818;stroke-width:1;"/><polygon fill="#181818" points="818.45,328.5269,815.4695,319.1398,815.1318,324.7866,809.4851,324.4489,818.45,328.5269" style="stroke:#181818;stroke-width:1;"/></g><!--link Controllers to ES--><g class="link" data-entity-1="ent0009" data-entity-2="ent0014" data-link-type="dependency" data-source-line="99" id="lnk52"><path d="M715.24,254.3869 C703.23,263.0769 687.61,272.7769 672,277.8969 C622.89,293.9869 604.99,269.4469 556,285.8969 C528.68,295.0669 506.2437,310.572 488.6137,324.842" fill="none" id="Controllers-to-ES" style="stroke:#181818;stroke-width:1;"/><polygon fill="#181818" points="483.95,328.6169,493.4622,326.0637,487.8364,325.4711,488.429,319.8454,483.95,328.6169" style="stroke:#181818;stroke-width:1;"/></g><!--link Controllers to IES--><g class="link" data-entity-1="ent0009" data-entity-2="ent0015" data-link-type="dependency" data-source-line="100" id="lnk53"><path d="M785.43,244.2769 C827.75,251.8069 890.33,265.2669 942,285.8969 C970.28,297.1869 995.1095,311.8713 1015.5395,325.2413" fill="none" id="Controllers-to-IES" style="stroke:#181818;stroke-width:1;"/><polygon fill="#181818" points="1020.56,328.5269,1015.2197,320.2516,1016.3763,325.7889,1010.8389,326.9455,1020.56,328.5269" style="stroke:#181818;stroke-width:1;"/></g><!--link PM to PDAO--><g class="link" data-entity-1="ent0012" data-entity-2="ent0028" data-link-type="dependency" data-source-line="103" id="lnk54"><path d="M661.18,365.5169 C685.87,386.8869 722.8731,418.9205 747.4731,440.2105" fill="none" id="PM-to-PDAO" style="stroke:#181818;stroke-width:1;"/><polygon fill="#181818" points="752.01,444.1369,747.8223,435.2227,748.2293,440.8649,742.5871,441.2718,752.01,444.1369" style="stroke:#181818;stroke-width:1;"/></g><!--link PM to EF--><g class="link" data-entity-1="ent0012" data-entity-2="ent0017" data-link-type="dependency" data-source-line="104" id="lnk55"><path d="M620.82,365.5169 C596.13,386.8869 559.1269,418.9205 534.5269,440.2105" fill="none" id="PM-to-EF" style="stroke:#181818;stroke-width:1;"/><polygon fill="#181818" points="529.99,444.1369,539.4129,441.2718,533.7707,440.8649,534.1777,435.2227,529.99,444.1369" style="stroke:#181818;stroke-width:1;"/></g><!--link CM to CIO--><g class="link" data-entity-1="ent0013" data-entity-2="ent0030" data-link-type="dependency" data-source-line="105" id="lnk56"><path d="M879.63,365.6869 C898.85,373.0469 921.48,381.6269 942,389.1869 C957.05,394.7369 961.72,393.9769 976,401.2969 C999.53,413.3469 1019.3555,427.23 1036.3655,440.25" fill="none" id="CM-to-CIO" style="stroke:#181818;stroke-width:1;"/><polygon fill="#181818" points="1041.13,443.8969,1036.4145,435.2502,1037.1596,440.8578,1031.552,441.6029,1041.13,443.8969" style="stroke:#181818;stroke-width:1;"/></g><!--link ES to EF--><g class="link" data-entity-1="ent0014" data-entity-2="ent0017" data-link-type="dependency" data-source-line="106" id="lnk57"><path d="M470.99,365.2669 C479.63,386.5769 492.0139,417.1072 500.6939,438.4972" fill="none" id="ES-to-EF" style="stroke:#181818;stroke-width:1;"/><polygon fill="#181818" points="502.95,444.0569,503.2723,434.2133,501.0699,439.4238,495.8594,437.2214,502.95,444.0569" style="stroke:#181818;stroke-width:1;"/></g><!--link IES to CIO--><g class="link" data-entity-1="ent0015" data-entity-2="ent0030" data-link-type="dependency" data-source-line="107" id="lnk58"><path d="M1048.58,365.2669 C1051.78,386.5769 1056.3023,416.7329 1059.5023,438.1229" fill="none" id="IES-to-CIO" style="stroke:#181818;stroke-width:1;"/><polygon fill="#181818" points="1060.39,444.0569,1063.0144,434.5641,1059.6502,439.1119,1055.1024,435.7478,1060.39,444.0569" style="stroke:#181818;stroke-width:1;"/></g><!--link EF to US--><g class="link" data-entity-1="ent0017" data-entity-2="ent0019" data-link-type="dependency" data-source-line="110" id="lnk59"><path d="M517.14,480.6669 C525.97,501.9769 538.6339,532.5236 547.4939,553.9136" fill="none" id="EF-to-US" style="stroke:#181818;stroke-width:1;"/><polygon fill="#181818" points="549.79,559.4569,550.0414,549.6112,547.8766,554.8375,542.6503,552.6727,549.79,559.4569" style="stroke:#181818;stroke-width:1;"/></g><!--link EF to CS--><g class="link" data-entity-1="ent0017" data-entity-2="ent0020" data-link-type="dependency" data-source-line="111" id="lnk60"><path d="M435.34,476.1769 C414.26,481.7369 391.94,489.6169 373,500.6869 C347.21,515.7769 327.8844,537.2713 314.3544,554.6613" fill="none" id="EF-to-CS" style="stroke:#181818;stroke-width:1;"/><polygon fill="#181818" points="310.67,559.3969,319.3536,554.7499,313.7403,555.4506,313.0396,549.8373,310.67,559.3969" style="stroke:#181818;stroke-width:1;"/></g><!--link EF to RS--><g class="link" data-entity-1="ent0017" data-entity-2="ent0021" data-link-type="dependency" data-source-line="112" id="lnk61"><path d="M498.15,480.6669 C483.49,501.9769 462.0699,533.1231 447.3599,554.5131" fill="none" id="EF-to-RS" style="stroke:#181818;stroke-width:1;"/><polygon fill="#181818" points="443.96,559.4569,452.3556,554.3078,446.7932,555.3371,445.7639,549.7746,443.96,559.4569" style="stroke:#181818;stroke-width:1;"/></g><!--link EF to CPS--><g class="link" data-entity-1="ent0017" data-entity-2="ent0022" data-link-type="dependency" data-source-line="113" id="lnk62"><path d="M435.39,467.8069 C363.39,472.9669 260.16,483.1569 224,500.6869 C196.24,514.1469 175.8631,536.5772 162.0631,554.5572" fill="none" id="EF-to-CPS" style="stroke:#181818;stroke-width:1;"/><polygon fill="#181818" points="158.41,559.3169,167.0628,554.6128,161.4543,555.3505,160.7166,549.7419,158.41,559.3169" style="stroke:#181818;stroke-width:1;"/></g><!--link CPS to Strategies--><g class="link" data-entity-1="ent0022" data-entity-2="ent0023" data-link-type="dependency" data-source-line="114" id="lnk63"><path d="M149.71,596.3569 C161.16,609.9069 183.57,627.7169 207,635.9869 C224.93,642.3269 363.53,631.6469 378,643.9869 C385.81,650.6469 390.9144,659.6112 394.4344,669.327 C394.8744,670.5415 395.2896,671.7677 395.6823,673.0026 C395.8786,673.6201 394.3546,668.49 394.5399,669.1114" fill="none" id="CPS-to-Strategies" style="stroke:#181818;stroke-width:1;"/><polygon fill="#181818" points="396.2547,674.8612,397.5157,665.0934,394.8257,670.0697,389.8494,667.3797,396.2547,674.8612" style="stroke:#181818;stroke-width:1;"/></g><!--link CPS to Strategies--><g class="link" data-entity-1="ent0022" data-entity-2="ent0023" data-link-type="dependency" data-source-line="120" id="lnk67"><path d="M177.95,596.3569 C196.16,609.9069 218.57,627.7169 242,635.9869 C259.93,642.3269 398.53,631.6469 413,643.9869 C428.62,657.3069 433.4175,679.8444 432.0888,699.1756 C431.4244,708.8413 429.2284,717.7053 426.088,724.2148 C425.3029,725.8422 424.4587,727.3225 423.5647,728.6313 C423.1177,729.2857 422.6582,729.8972 422.1874,730.4629 C422.1286,730.5336 425.9678,726.0424 425.9086,726.1117" fill="none" id="CPS-to-Strategies-1" style="stroke:#181818;stroke-width:1;"/><polygon fill="#181818" points="422.0103,730.6728,430.8984,726.43,425.2589,726.8719,424.817,721.2323,422.0103,730.6728" style="stroke:#181818;stroke-width:1;"/></g><!--link US to ZH--><g class="link" data-entity-1="ent0019" data-entity-2="ent0035" data-link-type="dependency" data-source-line="117" id="lnk64"><path d="M567.32,596.3469 C576.4,609.9069 590.96,627.7069 609,635.9869 C637.99,649.2969 867.35,629.9669 896,643.9869 C927.84,659.5669 948.0815,690.4201 959.6815,712.2201" fill="none" id="US-to-ZH" style="stroke:#181818;stroke-width:1;"/><polygon fill="#181818" points="962.5,717.5169,961.8035,707.6927,960.1513,713.1029,954.7411,711.4507,962.5,717.5169" style="stroke:#181818;stroke-width:1;"/></g><!--link CS to CE--><g class="link" data-entity-1="ent0020" data-entity-2="ent0033" data-link-type="dependency" data-source-line="118" id="lnk65"><path d="M315.42,596.3269 C329.65,609.4869 350.94,626.7869 373,635.9869 C396.61,645.8369 404.88,639.1369 430,643.9869 C538.52,664.9469 657.2127,695.9235 730.3127,715.9235" fill="none" id="CS-to-CE" style="stroke:#181818;stroke-width:1;"/><polygon fill="#181818" points="736.1,717.5069,728.4746,711.2736,731.2772,716.1874,726.3635,718.99,736.1,717.5069" style="stroke:#181818;stroke-width:1;"/></g><!--link RS to CE--><g class="link" data-entity-1="ent0021" data-entity-2="ent0033" data-link-type="dependency" data-source-line="119" id="lnk66"><path d="M446.42,596.2669 C457.67,608.8669 474.32,625.4669 492,635.9869 C563.36,678.4469 649.1722,703.6339 713.7022,718.4539" fill="none" id="RS-to-CE" style="stroke:#181818;stroke-width:1;"/><polygon fill="#181818" points="719.55,719.7969,711.6737,713.8839,714.6769,718.6777,709.883,721.6809,719.55,719.7969" style="stroke:#181818;stroke-width:1;"/></g><!--link CE to ProcM--><g class="link" data-entity-1="ent0033" data-entity-2="ent0034" data-link-type="dependency" data-source-line="123" id="lnk68"><path d="M797.47,754.7569 C795.81,773.9669 793.6792,798.5394 792.0192,817.6494" fill="none" id="CE-to-ProcM" style="stroke:#181818;stroke-width:1;"/><polygon fill="#181818" points="791.5,823.6269,796.2639,815.0068,791.9327,818.6456,788.2939,814.3145,791.5,823.6269" style="stroke:#181818;stroke-width:1;"/></g><!--link ZH to FSM--><g class="link" data-entity-1="ent0035" data-entity-2="ent0036" data-link-type="dependency" data-source-line="124" id="lnk69"><path d="M972.19,754.7569 C973.48,773.9669 975.1359,798.5305 976.4259,817.6405" fill="none" id="ZH-to-FSM" style="stroke:#181818;stroke-width:1;"/><polygon fill="#181818" points="976.83,823.6269,980.2148,814.3779,976.4932,818.6382,972.2329,814.9167,976.83,823.6269" style="stroke:#181818;stroke-width:1;"/></g><!--link ProcM to CLI--><g class="link" data-entity-1="ent0034" data-entity-2="ent0003" data-link-type="dependency" data-source-line="125" id="lnk70"><path d="M793.14,860.4569 C797.28,883.5219 804.82,925.5069 811.41,962.1994 C811.8219,964.4927 812.23,966.7653 812.6334,969.0113 C812.7343,969.5728 812.8348,970.1326 812.9351,970.6907 C812.9852,970.9698 811.9746,965.3429 812.0245,965.621" fill="none" id="ProcM-to-CLI" style="stroke:#181818;stroke-width:1;"/><polygon fill="#181818" points="813.0852,971.5265,815.4312,961.9612,812.2013,966.6053,807.5572,963.3754,813.0852,971.5265" style="stroke:#181818;stroke-width:1;"/></g><!--link FSM to FS--><g class="link" data-entity-1="ent0036" data-entity-2="ent0002" data-link-type="dependency" data-source-line="126" id="lnk71"><path d="M973.04,860.5169 C959.43,905.4569 917.33,1025.8469 840,1091.4269 C824.94,1104.2069 810.8963,1110.9577 792.6363,1116.5577" fill="none" id="FSM-to-FS" style="stroke:#181818;stroke-width:1;"/><polygon fill="#181818" points="786.9,1118.3169,796.6773,1119.5023,791.6803,1116.8509,794.3316,1111.8538,786.9,1118.3169" style="stroke:#181818;stroke-width:1;"/></g><!--link PDAO to DBM--><g class="link" data-entity-1="ent0028" data-entity-2="ent0031" data-link-type="dependency" data-source-line="129" id="lnk72"><path d="M793.11,480.9069 C818.93,502.2869 857.7489,534.4099 883.4689,555.7099" fill="none" id="PDAO-to-DBM" style="stroke:#181818;stroke-width:1;"/><polygon fill="#181818" points="888.09,559.5369,883.7097,550.7157,884.2391,556.3477,878.6071,556.8772,888.09,559.5369" style="stroke:#181818;stroke-width:1;"/></g><!--link RDAO to DBM--><g class="link" data-entity-1="ent0029" data-entity-2="ent0031" data-link-type="dependency" data-source-line="130" id="lnk73"><path d="M909,480.6669 C909,501.9769 909,532.0669 909,553.4569" fill="none" id="RDAO-to-DBM" style="stroke:#181818;stroke-width:1;"/><polygon fill="#181818" points="909,559.4569,913,550.4569,909,554.4569,905,550.4569,909,559.4569" style="stroke:#181818;stroke-width:1;"/></g><!--link DBM to DB--><g class="link" data-entity-1="ent0031" data-entity-2="ent0037" data-link-type="dependency" data-source-line="131" id="lnk74"><path d="M985.72,577.9569 C1114.04,578.1469 1364.34,586.1769 1427,643.9869 C1430.7425,647.4394 1433.8517,651.4223 1436.4268,655.7529 C1437.0706,656.8356 1437.681,657.94 1438.2596,659.0632 C1438.4042,659.344 1435.8769,654.2528 1436.0176,654.536" fill="none" id="DBM-to-DB" style="stroke:#181818;stroke-width:1;"/><polygon fill="#181818" points="1438.6876,659.9092,1438.2647,650.0694,1436.4626,655.4315,1431.1005,653.6293,1438.6876,659.9092" style="stroke:#181818;stroke-width:1;"/></g><!--link CIO to ConfigFiles--><g class="link" data-entity-1="ent0030" data-entity-2="ent0040" data-link-type="dependency" data-source-line="132" id="lnk75"><path d="M1124.51,481.0769 C1139.89,484.7769 1156.44,488.1469 1172,490.1369 C1192.42,492.7569 1896.79,488.0069 1913,500.6869 C1916.3363,503.2994 1919.1578,506.3958 1921.5404,509.8206 C1922.7317,511.533 1923.8133,513.3275 1924.7945,515.1847 C1925.0399,515.649 1922.6229,533.034 1922.8558,533.5058" fill="none" id="CIO-to-ConfigFiles" style="stroke:#181818;stroke-width:1;"/><polygon fill="#181818" points="1925.5119,538.8859,1925.1145,529.0451,1923.2985,534.4025,1917.941,532.5865,1925.5119,538.8859" style="stroke:#181818;stroke-width:1;"/></g><!--link EF to Submissions--><g class="link" data-entity-1="ent0017" data-entity-2="ent0044" data-link-type="dependency" data-source-line="135" id="lnk76"><path d="M584.85,476.0269 C620.77,481.4769 664.5,487.2669 704,490.1369 C738.49,492.6469 1916.22,489.6569 1949,500.6869 C2049.91,534.6769 2093.27,548.8069 2141,643.9869 C2170.94,703.6969 2176.88,737.9469 2141,794.2869 C2074.34,898.9519 1948.3025,958.3419 1838.2075,991.6194 C1783.16,1008.2581 1732.0981,1018.3688 1694.4369,1024.3466 C1675.6062,1027.3355 1660.1258,1029.2912 1649.1723,1030.5131 C1646.434,1030.8186 1643.9786,1031.0782 1641.8245,1031.2966 C1641.2859,1031.3512 1640.7663,1031.4033 1640.2657,1031.4528 C1640.0154,1031.4776 1645.7414,1030.918 1645.5008,1030.9416" fill="none" id="EF-to-Submissions" style="stroke:#181818;stroke-width:1;"/><polygon fill="#181818" points="1639.5292,1031.5252,1648.8756,1034.6307,1644.5055,1031.0388,1648.0974,1026.6687,1639.5292,1031.5252" style="stroke:#181818;stroke-width:1;"/></g><!--link FSM to Submissions--><g class="link" data-entity-1="ent0036" data-entity-2="ent0044" data-link-type="dependency" data-source-line="136" id="lnk77"><path d="M1061.76,846.8869 C1215.33,855.7769 1533.47,882.7569 1612,956.1369 C1615.0863,959.0206 1617.7036,962.3225 1619.9204,965.8989 C1621.0287,967.6872 1622.037,969.544 1622.9536,971.4516 C1623.0109,971.5708 1620.5024,988.5632 1620.559,988.6828" fill="none" id="FSM-to-Submissions" style="stroke:#181818;stroke-width:1;"/><polygon fill="#181818" points="1623.1244,994.1067,1622.8922,984.2606,1620.9865,989.5868,1615.6603,987.6812,1623.1244,994.1067" style="stroke:#181818;stroke-width:1;"/></g><!--link Compilers to FS--><g class="link" data-entity-1="ent0004" data-entity-2="ent0002" data-link-type="dependency" data-source-line="137" id="lnk78"><path d="M604.49,1051.9269 C621.62,1063.5669 644.85,1078.9069 666,1091.4269 C677.37,1098.1569 684.7385,1102.2762 696.1585,1108.2762" fill="none" id="Compilers-to-FS" style="stroke:#181818;stroke-width:1;"/><polygon fill="#181818" points="701.47,1111.0669,695.3631,1103.3399,697.0437,1108.7413,691.6423,1110.4219,701.47,1111.0669" style="stroke:#181818;stroke-width:1;"/></g><!--link Exec to FS--><g class="link" data-entity-1="ent0005" data-entity-2="ent0002" data-link-type="dependency" data-source-line="138" id="lnk79"><path d="M736,1051.5769 C736,1068.4869 736,1088.0969 736,1105.0769" fill="none" id="Exec-to-FS" style="stroke:#181818;stroke-width:1;"/><polygon fill="#181818" points="736,1111.0769,740,1102.0769,736,1106.0769,732,1102.0769,736,1111.0769" style="stroke:#181818;stroke-width:1;"/></g><!--link EF to GMN80--><g class="link" data-entity-1="ent0017" data-entity-2="ent0081" data-link-type="association" data-source-line="142" id="lnk82"><path d="M554.42,443.9069 C596.56,427.3869 662.11,404.4469 721.5,395.2469 C766.52,388.2669 1086.57,387.6969 1131.5,395.2469 C1165.28,400.9169 1199.72,418.6069 1225.15,434.4069" fill="none" id="EF-GMN80" style="stroke:#181818;stroke-width:1;stroke-dasharray:7,7;"/></g><!--link CM to GMN83--><g class="link" data-entity-1="ent0013" data-entity-2="ent0084" data-link-type="association" data-source-line="148" id="lnk85"><path d="M856.8,328.6169 C880.71,310.9469 920.23,286.3269 959.5,281.8969 C997.48,277.6069 1093.52,277.6069 1131.5,281.8969 C1139.43,282.7869 1141.43,283.3869 1149,285.8969 C1176.53,295.0069 1206.07,307.5769 1230.8,318.9569" fill="none" id="CM-GMN83" style="stroke:#181818;stroke-width:1;stroke-dasharray:7,7;"/></g><!--link Steps to GMN86--><g class="link" data-entity-1="ent0018" data-entity-2="ent0087" data-link-type="association" data-source-line="154" id="lnk88"><path d="M648.1737,563.5859 C648.232,563.491 648.2906,563.3958 648.3494,563.3003 C648.4672,563.1092 648.5861,562.9167 648.7061,562.7229 C648.9461,562.3353 649.1907,561.9422 649.4398,561.5441 C650.4361,559.9515 651.5045,558.2766 652.6414,556.5358 C654.9153,553.0541 657.4638,549.3084 660.26,545.4281 C671.445,529.9069 686.595,512.2319 704,500.6869 C710.77,496.2069 713.46,496.5969 721.5,495.4169 C761.7,489.4869 2144.3,489.4869 2184.5,495.4169 C2226.05,501.5469 2266.67,528.2969 2293.46,549.6869" fill="none" id="Steps-GMN86" style="stroke:#181818;stroke-width:1;stroke-dasharray:7,7;"/></g><!--link Strategies to GMN89--><g class="link" data-entity-1="ent0023" data-entity-2="ent0090" data-link-type="association" data-source-line="160" id="lnk91"><path d="M422.3161,732.2295 C422.4684,732.1592 422.6228,732.088 422.7791,732.0159 C423.0916,731.8718 423.4121,731.7243 423.7403,731.5734 C424.3967,731.2716 425.0843,730.9565 425.8024,730.6285 C431.5469,728.0046 439.2432,724.556 448.5652,720.5327 C467.2091,712.4859 492.3556,702.14 521.3963,691.4931 C579.4775,670.1994 653.135,647.7019 721.5,639.9869 C753.91,636.3369 1863.09,636.3369 1895.5,639.9869 C1944.33,645.4969 1990.13,681.6769 2017.61,708.0369" fill="none" id="Strategies-GMN89" style="stroke:#181818;stroke-width:1;stroke-dasharray:7,7;"/></g><?plantuml-src ZLTDS-Ce4BtpArXVSigaPevxs2fRbYUQSZ9UAzdPpOt8M2QHm0KeYNSh_tsQ3qb8HfDDbHteVdJtQw0R_xQZUyOftgR9tVpswph5HKMKGaWzCtuaajIu4FLHSCfrhayLnP8Mcl2oeZ48_WzX-5kGuhcKek6xH5H2uZKh3tfHDTHfXTnHwJIB2g3eFVHt10afwQzC_KEhIhnE6zDCGwJPFCMNEEbYMp9IWWE4Bd3wfgdafCBvIMbQAzGpcAqOh7No6IOAh_9G2-PgmdSG1sJjJeXAML2opdp00ROiYgidyaAAg-D97mHtID231wd6wFID5eqcZnLr9itSaBd0DuHnF3yUArOGpGJ76vSYrAPgPgW6W9cFnNvTu8sa2boujMjoej8gkjLVxpCdRjUD8li675P_uxyOVNMXsL4CcGYkfQWCFK-scyVWOs9sZH62pEBVGngBHa7IbS9hKR8YHYI6cE2qaU89JZ9uux1KMi-RcmbEUrOsqgKln2THVFf2giQ1SofVM47TTkOnS0OZgQ_ID_DlWC_yWa4A0jifBu7haF-PUe9yW5kHWknyXAkFw6XwTFjgHu7jqPfx_YyxMf15t-TJG7yPUcWo2Tqsl8TjVscHoD3YfiU-eyaLJ5c2iCkqPBHbsKwdgQPln9uYNHnS4c-ca5d91GJsuy0qLR1bVfj_JE7l9AjjcN71tAr7D0O7OqaqmVEYi8V__6ASgJ-u5SlvTtSZO133RQbggXwsdO0DhqvsvT195WMR61-9eeChjbpSd9FD-5uIfMLJw0Oo6k4RGqnGRWkwAx_2t-nq8ZisWuEQ0R9e6NZ8DlWQ35SU-70TGmNDPc1sbRUyRGTeSuDsRP9c-PzhE4YTncVhl0dvBLLjj4_B1OhkfaF0603MwN3tJAGAxKK5xNQyirRN5doGsxaFPMyOpehBenIc-zQCbv-ULDiC7Ju0cduPntuxmxgk6aTlFDeooNMpCqppvh5cIa78FPE8pbt-VZvWeXp-yoSeSGxu-LpxfTT-ETVUzjfR5-2MLZQJwi2WhbxYhYCZtmtnvUKVlks6ah2_1cEhWsus5YNd8kWoOv7fF96OXiqLRMwS5tFr_HWQIE96vegdUIlC_D188uRFcrgwidZe6twKTADjBuF23XyxxYlr1mvSuz9YL4FGlRC3bpJniQPesut-dvkHoIHr2R85uk7QJiorjW9dUPqXa7XDp6HGjv79j8MQchWD9_3nOmGfRWz6Um-Z6V7ltpQNuSLe8mfbtQErZTLKoo3kMm4z3N7unj8yqB7Ojyy9zy209wisBd-tik-oE51bawamN0WctKE6zXlrAkJptZpoATHcOnYDpFl7LyxCRn5j7yM11oV6Z2luiL9Gl1VILxsmRjMsujOGmQGRUs3iqZjQ7o6Bq9yeb9tTq9_f8a7KdJzILI4hPQrD--gEb-NWfgUXfoNRxwaq5Qle7YxULIaaquUwT_0J?></g></svg>